<?xml version="1.0" encoding="UTF-8"?>
<svg xmlns="http://www.w3.org/2000/svg" width="100" height="100" viewBox="0 0 100 100">
  <path d="M28.1 65.5c-1.4 1.8-2.7 4.1-3.7 6.8-1 2.7-1.5 5.5-1.5 8.4 0 3.9.8 7.1 2.5 9.6 1.7 2.5 3.9 3.7 6.6 3.7 1.6 0 3.1-.4 4.5-1.3 1.4-.9 2.6-2.1 3.7-3.7.4-.6.7-1.2 1-1.8.3-.6.5-1.2.7-1.8h.4c.2.6.4 1.2.7 1.8.3.6.6 1.2 1 1.8 1.1 1.6 2.3 2.8 3.7 3.7 1.4.9 2.9 1.3 4.5 1.3 2.7 0 4.9-1.2 6.6-3.7 1.7-2.5 2.5-5.7 2.5-9.6 0-2.9-.5-5.7-1.5-8.4-1-2.7-2.3-5-3.7-6.8-2.8-3.6-6.1-6.5-9.8-8.7-3.7-2.2-7.7-3.3-11.9-3.3s-8.2 1.1-11.9 3.3c-3.7 2.2-7 5.1-9.8 8.7z" fill="#FF9900"/>
  <path d="M71.9 34.5c1.4-1.8 2.7-4.1 3.7-6.8 1-2.7 1.5-5.5 1.5-8.4 0-3.9-.8-7.1-2.5-9.6-1.7-2.5-3.9-3.7-6.6-3.7-1.6 0-3.1.4-4.5 1.3-1.4.9-2.6 2.1-3.7 3.7-.4.6-.7 1.2-1 1.8-.3.6-.5 1.2-.7 1.8h-.4c-.2-.6-.4-1.2-.7-1.8-.3-.6-.6-1.2-1-1.8-1.1-1.6-2.3-2.8-3.7-3.7-1.4-.9-2.9-1.3-4.5-1.3-2.7 0-4.9 1.2-6.6 3.7-1.7 2.5-2.5 5.7-2.5 9.6 0 2.9.5 5.7 1.5 8.4 1 2.7 2.3 5 3.7 6.8 2.8 3.6 6.1 6.5 9.8 8.7 3.7 2.2 7.7 3.3 11.9 3.3s8.2-1.1 11.9-3.3c3.7-2.2 7-5.1 9.8-8.7z" fill="#FF9900"/>
</svg>
