<?xml version="1.0" encoding="UTF-8"?>
<svg xmlns="http://www.w3.org/2000/svg" width="100" height="100" viewBox="0 0 100 100">
  <path d="M50 0C36.7 0 34.3 3.6 34.3 10.9v8h15.9v2H22.4C15 20.9 11.3 23.3 11.3 36.6c0 13.3 3.7 15.7 11 15.7h7.1v-7.6c0-7.3 2.4-10.9 15.7-10.9 13.3 0 15.7 3.6 15.7 10.9v19.8c0 7.3-2.4 10.9-15.7 10.9-13.3 0-15.7-3.6-15.7-10.9v-8H15.7v2C15.7 84.3 18.1 88 31.4 88h37.2c13.3 0 15.7-3.7 15.7-11V25.7c0-7.3-2.4-10.9-15.7-10.9H50z" fill="#3776AB"/>
  <path d="M34.3 77.1v7.6h7.1c7.3 0 11-2.4 11-15.7 0-13.3-3.7-15.7-11-15.7h-7.1v7.6c0 7.3-2.4 10.9-15.7 10.9-13.3 0-15.7-3.6-15.7-10.9V41.1c0-7.3 2.4-10.9 15.7-10.9 13.3 0 15.7 3.6 15.7 10.9v8h15.7v-2c0-7.3-2.4-11-15.7-11H15.7C2.4 36.1 0 39.8 0 47.1v37.2C0 97.6 2.4 101.3 15.7 101.3h37.2c13.3 0 15.7-3.7 15.7-11V77.1H34.3z" fill="#FFD43B"/>
</svg>
